<svg width="16" height="15" viewBox="0 0 16 15" fill="none" xmlns="http://www.w3.org/2000/svg">
<path id="Union" fill-rule="evenodd" clip-rule="evenodd" d="M10.8571 6.42857C10.8571 8.8744 8.8744 10.8571 6.42857 10.8571C3.98274 10.8571 2 8.8744 2 6.42857C2 3.98274 3.98274 2 6.42857 2C8.8744 2 10.8571 3.98274 10.8571 6.42857ZM10.6112 11.3105C9.48695 12.2747 8.02579 12.8571 6.42857 12.8571C2.87817 12.8571 0 9.97897 0 6.42857C0 2.87817 2.87817 0 6.42857 0C9.97897 0 12.8571 2.87817 12.8571 6.42857C12.8571 7.67807 12.5007 8.84431 11.8839 9.83113C11.9692 9.87657 12.0494 9.93525 12.1213 10.0072L14.9928 12.8787C15.3833 13.2692 15.3833 13.9024 14.9928 14.2929C14.6023 14.6834 13.9691 14.6834 13.5786 14.2929L10.7071 11.4214C10.672 11.3863 10.64 11.3492 10.6112 11.3105Z" fill="#565656"/>
</svg>
